<svg xmlns="http://www.w3.org/2000/svg" width="878" height="3998" viewBox="0 0 878 3998">
  <defs>
    <linearGradient id="a" x1=".003%" y1="49.997%" y2="49.997%">
      <stop stop-color="#900D17" offset="0%"/>
      <stop stop-color="#930D18" offset="1%"/>
      <stop stop-color="#AE091B" offset="5%"/>
      <stop stop-color="#C6001E" offset="11%"/>
      <stop stop-color="#C7001E" offset="17%"/>
      <stop stop-color="#D5001F" offset="24%"/>
      <stop stop-color="#DF0020" offset="32%"/>
      <stop stop-color="#E20020" offset="50%"/>
      <stop stop-color="#E00020" offset="58%"/>
      <stop stop-color="#C6001E" offset="70%"/>
      <stop stop-color="#BE031D" offset="82%"/>
      <stop stop-color="#8C2E2C" offset="96%"/>
      <stop stop-color="#9A0C19" offset="100%"/>
    </linearGradient>
    <linearGradient id="b" x1="-46.71%" x2="129.363%" y1="102.428%" y2="-13.408%">
      <stop stop-color="#B80019" offset="0%"/>
      <stop stop-color="#C8001C" offset="19%"/>
      <stop stop-color="#D4001F" offset="39%"/>
      <stop stop-color="#CE001E" offset="60%"/>
      <stop stop-color="#C5001E" offset="80%"/>
      <stop stop-color="#A70A1B" offset="100%"/>
    </linearGradient>
  </defs>
  <g fill="none" fill-rule="evenodd" transform="matrix(0 1 1 0 0 0)">
    <path fill="url(#a)" d="M2868,60.5 C2924.275,43 2982.025,32.125 3040,32.325 C3129.65,32.65 3192.05,48.225 3221.675,54.825 C2990.825,-24.5 2819,-8.025 2667.9,46.925 C2481.1,114.85 2319.5,350.95 2282.275,408.475 C2334.375,380.975 2375.075,352.5 2404.45,332.25 C2468.65,288 2649.25,132.5 2855.525,64.5 L2868,60.5 Z"/>
    <path fill="url(#b)" d="M3980.275,327.675 C3769.85,350.175 3693.6,321.425 3576.95,262.675 C3534.45,241.3 3482.525,215.875 3421.275,192.45 C3421.275,192.45 3561.475,334.175 3700.075,401.125 C3948.8,521.25 3997.95,505.15 3997.95,505.15 L3980.275,327.675 Z"/>
    <path fill="#E20020" d="M3576.95,231.425 C3464.05,174.575 3316.125,32.25 3040.275,32.25 C2764.425,32.25 2487.35,275.175 2404.45,332.25 C2325.8,386.4 2166.125,498.925 1923.625,498.925 C1695.3,498.925 1475.5,312.675 1275.5,247.675 C1075.5,182.675 896.15,222.275 782.375,291.425 C676.125,356 587.375,472.675 344.25,583.3 C101.125,693.925 0,684.5 0,684.5 L0,710.75 C0,710.75 101.125,720.175 344.25,609.55 C587.375,498.925 676.125,428.5 782.375,363.925 C896.15,294.775 1075.5,255.175 1275.5,320.175 C1475.5,385.175 1695.35,529.875 1923.625,525.175 C2166.125,520.175 2322.1,424.725 2404.45,376.425 C2496.125,322.675 2764.45,120.175 3040.275,120.175 C3283.6,120.175 3464.025,205.825 3576.95,262.675 C3693.625,321.425 3769.875,350.175 3980.275,327.675 L3980.275,301.425 C3769.875,323.925 3693.625,290.175 3576.95,231.425 Z"/>
    <path fill="url(#a)" d="M1217,231.45 C1157,208.25 1074.15,183.95 953.6,183.95 C821.1,183.95 706.1,235.2 618.175,288.525 C530.25,341.85 440.475,458.15 432.025,468.325 C425.55,476.125 374.7,547.375 351.5,579.975 C589,470.35 677.15,355.375 782.325,291.45 C885,229.1 1040.775,190.8 1217,231.45 Z"/>
    <path fill="url(#b)" d="M334.725,613.875 C98.475,719.95 3.41060513e-13,710.75 3.41060513e-13,710.75 L3.41060513e-13,877.7 C3.41060513e-13,877.7 147.175,876.325 333.775,617.7 C334.834232,616.240784 335.794707,614.712375 336.65,613.125 L334.725,613.875 Z"/>
    <path fill="url(#a)" d="M1923.625,525.175 C1721.375,529.35 1525.75,416.25 1344.675,345.175 C1477.5,461.75 1710,634.775 1917.925,634.775 C2123.775,634.775 2225.675,507.85 2260.425,452.15 C2154.07055,498.457852 2039.60809,523.27561 1923.625,525.175 L1923.625,525.175 Z"/>
  </g>
</svg>